<?xml version="1.0" standalone="no"?>
<!DOCTYPE svg PUBLIC "-//W3C//DTD SVG 20010904//EN"
 "http://www.w3.org/TR/2001/REC-SVG-20010904/DTD/svg10.dtd">
<svg version="1.0" xmlns="http://www.w3.org/2000/svg"
 width="1000.000000pt" height="1000.000000pt" viewBox="0 0 1000.000000 1000.000000"
 preserveAspectRatio="xMidYMid meet">

<g transform="translate(0.000000,1000.000000) scale(0.100000,-0.100000)"
fill="#fff" stroke="none">
<path d="M4224 9248 c14 -446 34 -676 64 -738 32 -65 17 -64 652 -71 319 -4
615 -12 665 -18 432 -55 757 -218 1060 -533 163 -169 277 -349 330 -523 14
-44 55 -224 91 -400 94 -456 130 -570 195 -616 43 -30 93 -21 190 35 101 59
126 64 163 35 40 -31 57 -79 63 -178 15 -250 -119 -749 -305 -1131 -43 -89
-69 -128 -116 -176 -89 -90 -148 -103 -274 -59 -88 31 -95 31 -126 3 -19 -18
-47 -89 -119 -308 -130 -392 -214 -581 -350 -783 -110 -166 -229 -296 -407
-446 -411 -346 -850 -575 -1271 -665 -201 -43 -562 -41 -679 4 -335 130 -317
253 45 317 85 15 159 18 497 16 l397 -1 14 37 c38 93 57 439 27 475 -22 28
-75 14 -249 -68 -86 -40 -171 -79 -190 -85 -71 -23 -205 -32 -327 -22 -111 10
-125 13 -209 55 -110 54 -221 136 -347 255 l-95 90 -84 3 -84 3 65 43 c91 60
241 131 305 145 39 8 90 8 195 0 146 -12 182 -23 195 -62 8 -26 99 -87 165
-110 95 -33 346 -64 652 -80 219 -12 262 -7 266 30 5 44 -80 110 -248 193
-225 111 -343 144 -561 153 l-136 6 -7 90 c-14 203 -10 216 77 266 86 49 137
56 245 31 116 -25 183 -25 267 1 82 25 150 86 161 144 20 107 -12 229 -127
482 -177 391 -209 534 -189 856 11 183 26 235 86 293 108 104 427 225 777 293
441 86 721 76 1061 -39 143 -48 194 -56 220 -37 98 72 -323 329 -690 421 -135
34 -237 39 -524 28 -231 -10 -253 -13 -389 -47 -260 -66 -436 -137 -486 -196
-26 -32 -43 -75 -79 -205 -14 -50 -49 -153 -78 -230 l-52 -139 -1 -235 c0
-213 2 -244 24 -330 31 -125 76 -246 176 -470 100 -224 115 -272 115 -370 0
-64 -3 -80 -20 -95 -31 -28 -110 -30 -233 -6 -164 32 -188 30 -304 -29 -54
-27 -110 -50 -125 -50 -29 0 -56 20 -178 135 -102 95 -153 120 -250 120 -60 0
-86 -6 -131 -27 -96 -44 -179 -136 -179 -198 0 -61 81 -139 169 -164 71 -20
176 -20 301 -1 52 8 112 15 132 15 33 0 37 -3 49 -37 13 -40 16 -224 5 -260
-7 -21 -14 -21 -224 -25 -234 -5 -240 -6 -376 -75 -114 -58 -337 -224 -388
-289 -26 -32 -16 -54 28 -66 16 -5 97 -6 179 -2 l150 6 95 -87 c251 -232 467
-327 740 -326 122 0 231 24 404 90 60 22 111 41 113 41 2 0 3 -49 3 -110 l0
-110 -307 0 c-330 0 -507 -10 -625 -35 -102 -21 -205 -74 -261 -134 -41 -43
-47 -56 -47 -92 0 -159 234 -308 547 -350 307 -41 796 65 1198 261 378 184
829 533 1058 820 181 226 274 416 446 910 40 112 73 206 75 207 1 2 54 7 117
13 145 12 174 21 248 75 106 78 193 225 305 512 145 372 195 597 196 869 0
147 -12 227 -38 264 -10 14 -40 39 -67 57 -86 57 -81 39 -120 403 -86 787
-188 1161 -406 1482 -83 122 -302 342 -442 445 -303 223 -670 389 -1106 498
-368 92 -669 125 -1160 125 l-283 0 6 -212z m531 92 c430 -23 763 -79 1069
-177 757 -243 1242 -648 1434 -1195 40 -111 105 -375 136 -548 45 -246 86
-635 86 -810 l0 -65 -52 -33 c-52 -32 -53 -32 -69 -13 -21 25 -45 121 -119
482 -65 311 -118 492 -176 599 -117 215 -262 384 -479 559 -194 157 -248 191
-426 262 -139 55 -307 102 -459 129 -116 21 -167 23 -692 29 -356 4 -571 10
-577 16 -5 6 -15 57 -20 115 -12 112 -41 560 -41 623 l0 37 103 0 c56 0 183
-5 282 -10z m1326 -2564 c144 -28 261 -58 252 -66 -4 -5 -118 -10 -253 -13
-191 -3 -271 -9 -364 -26 -175 -31 -459 -106 -638 -167 -86 -30 -161 -54 -166
-54 -10 0 -3 44 16 92 29 71 138 125 369 182 284 70 585 90 784 52z m-2202
-2150 c29 -16 111 -100 111 -115 0 -32 -237 -51 -287 -23 -52 29 -29 92 49
131 50 25 88 27 127 7z m896 -728 c94 -32 165 -64 165 -75 0 -10 -216 6 -358
27 -127 18 -222 48 -222 69 0 14 69 19 205 14 100 -3 135 -9 210 -35z"/>
<path d="M1220 2071 c0 -9 13 -21 30 -28 16 -6 38 -25 48 -43 11 -17 118 -272
237 -566 l218 -535 60 3 60 3 188 508 c103 279 197 523 209 541 22 37 84 96
100 96 6 0 10 8 10 18 0 18 -12 19 -171 20 -155 1 -170 0 -167 -16 2 -11 17
-19 43 -23 60 -10 95 -55 95 -122 0 -29 -7 -79 -15 -110 -16 -61 -223 -627
-234 -639 -6 -7 -308 752 -317 799 -8 40 15 65 67 72 29 4 45 11 47 22 3 15
-21 17 -252 17 -233 0 -256 -1 -256 -17z"/>
<path d="M6431 2068 c-288 -737 -392 -1000 -406 -1028 -22 -45 -53 -78 -87
-96 -16 -8 -28 -21 -28 -29 0 -13 27 -15 170 -15 141 0 170 2 170 14 0 15 -12
20 -72 30 -92 16 -101 111 -30 296 l40 105 184 3 185 2 56 -157 c73 -205 74
-206 48 -232 -12 -12 -32 -21 -45 -21 -35 0 -56 -10 -56 -26 0 -11 45 -14 255
-14 210 0 255 3 255 14 0 8 -16 23 -34 34 -19 12 -44 38 -54 59 -11 21 -111
273 -222 561 l-203 522 -59 0 c-51 0 -60 -3 -67 -22z m33 -464 c42 -116 76
-214 76 -218 0 -3 -75 -6 -166 -6 -166 0 -166 0 -161 22 16 61 162 427 168
420 3 -4 41 -102 83 -218z"/>
<path d="M8165 2019 c-27 -10 -80 -21 -117 -25 l-68 -7 0 -108 0 -109 -71 0
c-62 0 -70 -2 -67 -17 3 -15 16 -19 70 -21 l66 -3 4 -347 c3 -331 4 -349 25
-394 33 -72 84 -101 186 -106 71 -3 88 0 127 20 64 33 138 143 104 155 -6 2
-21 -12 -33 -32 -26 -44 -80 -70 -119 -57 -47 15 -51 47 -51 420 l-1 342 100
0 c93 0 100 1 100 20 0 19 -7 20 -100 20 l-99 0 -3 133 -3 133 -50 -17z"/>
<path d="M2588 1771 c-72 -24 -117 -52 -162 -101 -76 -85 -110 -190 -110 -345
0 -212 69 -346 213 -414 50 -23 68 -26 166 -26 103 0 113 2 164 30 29 16 70
49 92 73 89 101 112 214 24 118 -50 -54 -83 -74 -140 -85 -100 -19 -183 27
-231 125 -24 48 -28 73 -32 165 l-5 109 238 0 238 0 -6 68 c-11 136 -69 231
-166 275 -66 30 -206 34 -283 8z m155 -22 c13 -6 31 -24 41 -40 21 -36 46
-148 46 -211 l0 -48 -130 0 -130 0 0 33 c0 53 20 148 40 187 25 48 67 85 102
89 4 1 18 -4 31 -10z"/>
<path d="M4203 1780 c-67 -14 -138 -49 -173 -85 -57 -58 -53 -171 7 -210 56
-37 158 -13 188 45 31 60 6 146 -50 172 -32 14 -31 22 2 37 82 38 173 16 205
-49 21 -40 26 -217 8 -251 -14 -25 -83 -59 -190 -94 -105 -34 -149 -56 -195
-96 -44 -39 -70 -119 -60 -182 21 -125 105 -185 244 -175 78 6 118 24 171 80
35 35 41 38 45 22 25 -82 70 -107 180 -101 108 5 191 47 159 80 -4 3 -16 0
-28 -8 -28 -20 -53 -19 -66 4 -6 12 -10 129 -10 310 0 325 -6 375 -53 428 -51
58 -104 76 -232 79 -60 2 -129 -1 -152 -6z m185 -728 c-17 -32 -59 -52 -108
-52 -52 0 -86 34 -96 95 -13 92 17 152 115 224 38 28 75 59 82 68 12 14 14 -8
17 -148 2 -116 -1 -171 -10 -187z"/>
<path d="M5093 1768 c-173 -64 -251 -186 -261 -406 -8 -187 27 -301 120 -388
68 -63 124 -85 235 -91 115 -7 175 12 248 79 62 56 125 166 104 179 -10 6 -25
-4 -52 -35 -48 -57 -111 -87 -181 -88 -139 -1 -225 125 -226 330 l0 72 235 0
235 0 0 54 c0 72 -32 172 -71 219 -52 63 -118 90 -229 94 -80 3 -105 0 -157
-19z m189 -35 c27 -24 49 -101 55 -195 l6 -88 -132 0 -131 0 0 25 c0 39 30
176 45 205 15 28 52 64 75 73 21 8 62 -2 82 -20z"/>
<path d="M7571 1763 c-35 -17 -64 -41 -85 -70 l-31 -45 -3 67 -3 66 -87 -8
c-48 -4 -126 -8 -174 -7 -79 1 -88 -1 -88 -17 0 -13 7 -19 21 -19 33 0 55 -17
70 -52 11 -26 14 -104 14 -360 l0 -326 -24 -26 c-15 -16 -35 -26 -53 -26 -20
0 -28 -5 -28 -18 0 -17 17 -18 255 -18 228 -1 255 1 253 15 -2 10 -19 18 -49
22 -55 8 -84 25 -98 56 -7 15 -11 124 -11 296 0 264 1 274 24 322 22 49 85
115 109 115 7 0 23 3 37 7 l25 7 -27 -33 c-55 -64 -57 -143 -6 -186 42 -36
124 -35 167 0 36 31 55 84 48 137 -16 116 -134 163 -256 101z"/>
<path d="M3481 1773 l-314 -3 7 -53 c3 -28 6 -103 6 -165 0 -102 2 -113 17
-110 13 2 20 18 25 56 17 117 81 205 167 230 21 7 70 12 110 12 l71 0 -101
-202 c-56 -112 -150 -302 -208 -423 l-107 -220 333 0 333 0 -2 165 c-3 142 -5
165 -19 168 -12 2 -18 -8 -23 -40 -12 -76 -36 -134 -73 -178 -51 -59 -100 -80
-195 -80 -43 0 -78 2 -78 3 0 2 92 191 205 420 113 230 205 419 205 422 0 3
-10 4 -22 3 -13 -2 -164 -4 -337 -5z"/>
</g>
</svg>
