<?xml version="1.0" standalone="no"?>
<!DOCTYPE svg PUBLIC "-//W3C//DTD SVG 20010904//EN"
 "http://www.w3.org/TR/2001/REC-SVG-20010904/DTD/svg10.dtd">
<svg version="1.0" xmlns="http://www.w3.org/2000/svg"
 width="1000.000000pt" height="1000.000000pt" viewBox="0 0 1000.000000 1000.000000"
 preserveAspectRatio="xMidYMid meet">

<g transform="translate(0.000000,1000.000000) scale(0.100000,-0.100000)"
fill="#000003" stroke="none">
<path d="M3483 9335 c9 -444 32 -781 62 -896 18 -65 45 -95 104 -109 30 -8
289 -14 746 -20 726 -9 810 -13 1034 -56 178 -33 315 -80 486 -163 554 -272
983 -764 1115 -1282 12 -44 54 -250 96 -456 108 -544 144 -679 204 -762 72
-98 140 -92 340 34 94 59 165 39 206 -57 23 -56 31 -282 14 -416 -54 -443
-300 -1174 -481 -1431 -58 -83 -116 -125 -202 -148 -70 -19 -83 -16 -230 37
-50 18 -64 19 -94 9 -46 -15 -63 -53 -152 -344 -122 -402 -193 -589 -316 -841
-180 -366 -406 -645 -765 -945 -498 -416 -1033 -694 -1546 -805 -125 -28 -138
-28 -434 -29 -345 0 -336 -2 -527 91 -145 71 -210 145 -187 213 20 55 145 113
316 146 160 30 342 38 764 31 l412 -6 21 51 c30 70 52 243 54 434 2 142 0 164
-17 189 -17 26 -21 28 -65 22 -28 -4 -126 -45 -251 -105 -224 -108 -268 -125
-380 -142 -92 -14 -334 -5 -414 16 -163 42 -444 242 -624 444 l-63 70 -112 3
-112 3 76 52 c97 66 244 144 332 178 58 21 84 25 180 25 124 0 274 -15 325
-31 24 -8 38 -21 48 -45 29 -68 174 -154 312 -184 284 -61 1018 -110 1065 -71
68 56 -84 188 -376 326 -244 115 -392 153 -643 162 l-172 6 -6 71 c-26 309
-23 326 60 381 129 86 203 100 339 64 277 -73 516 17 556 209 24 118 -19 283
-158 601 -218 498 -253 636 -253 989 0 321 24 452 97 533 131 145 545 311
1008 404 233 47 380 65 580 72 277 9 469 -22 786 -128 97 -32 191 -59 208 -59
51 0 71 16 71 56 0 28 -9 45 -46 84 -153 164 -635 396 -946 455 -97 18 -560
21 -769 4 -260 -21 -704 -159 -864 -269 -72 -49 -87 -84 -161 -355 -15 -55
-53 -170 -85 -256 -69 -186 -79 -248 -79 -519 0 -365 51 -564 273 -1070 122
-279 131 -310 132 -455 l0 -119 -40 -23 c-54 -30 -127 -30 -280 3 -66 14 -151
26 -188 27 -66 1 -73 -1 -200 -66 -84 -43 -144 -68 -164 -67 -28 0 -53 20
-177 139 -156 150 -209 184 -310 201 -153 25 -332 -66 -415 -212 -17 -29 -31
-68 -31 -86 0 -69 76 -164 164 -202 98 -44 255 -49 456 -16 169 28 178 28 195
2 31 -48 41 -240 18 -373 l-5 -31 -266 -4 c-245 -4 -272 -6 -327 -26 -135 -50
-288 -141 -453 -269 -166 -130 -240 -210 -226 -247 13 -34 126 -43 369 -27
l100 6 115 -109 c333 -314 599 -439 940 -440 178 0 286 24 515 114 83 33 154
60 158 60 9 0 9 -166 1 -236 l-6 -51 -467 -6 c-493 -6 -623 -16 -766 -58 -129
-38 -249 -114 -307 -193 -23 -32 -28 -49 -28 -96 0 -32 6 -73 14 -91 64 -153
293 -292 586 -355 115 -25 340 -29 504 -10 770 89 1525 476 2185 1121 418 408
578 695 856 1535 43 129 82 240 86 246 5 6 62 14 131 17 200 11 280 41 391
153 126 125 249 375 393 799 153 450 189 649 182 1025 -5 275 -13 298 -150
391 -32 22 -62 47 -67 57 -16 30 -29 125 -66 477 -94 895 -193 1335 -391 1728
-103 205 -211 353 -399 546 -393 404 -932 704 -1595 889 -519 145 -875 189
-1594 195 l-339 2 6 -330z m507 175 c741 -33 1192 -113 1698 -301 737 -275
1271 -709 1545 -1255 114 -228 210 -567 286 -1014 57 -333 97 -722 103 -1009
l3 -125 -54 -38 c-66 -46 -97 -49 -112 -10 -22 55 -69 265 -134 592 -70 356
-120 563 -162 670 -76 193 -230 445 -372 606 -85 98 -286 279 -466 419 -238
187 -666 347 -1085 406 -42 6 -384 13 -782 18 -435 4 -712 11 -718 17 -12 12
-36 266 -54 594 -9 146 -18 304 -21 353 l-5 87 53 0 c28 0 153 -5 277 -10z
m1895 -3408 c149 -31 308 -72 302 -78 -2 -2 -145 -8 -318 -13 -378 -12 -464
-24 -810 -111 -190 -48 -404 -114 -568 -175 -67 -25 -126 -45 -131 -45 -36 0
17 146 69 193 116 105 512 216 916 257 160 16 382 4 540 -28z m-2874 -2822
c39 -11 169 -136 169 -164 0 -37 -196 -67 -302 -47 -75 15 -98 33 -98 76 0 46
73 112 149 136 36 10 41 10 82 -1z m1174 -974 c109 -42 215 -93 215 -103 0
-18 -471 29 -608 62 -68 16 -142 50 -142 64 0 18 28 20 230 18 l205 -3 100
-38z"/>
</g>
</svg>
