<?xml version="1.0" standalone="no"?>
<!DOCTYPE svg PUBLIC "-//W3C//DTD SVG 20010904//EN"
 "http://www.w3.org/TR/2001/REC-SVG-20010904/DTD/svg10.dtd">
<svg version="1.0" xmlns="http://www.w3.org/2000/svg"
 width="1611.000000pt" height="588.000000pt" viewBox="0 0 1611.000000 588.000000"
 preserveAspectRatio="xMidYMid meet">

<g transform="translate(0.000000,588.000000) scale(0.100000,-0.100000)"
fill="#000000" stroke="none">
<path d="M915 5698 c7 -228 24 -483 35 -551 14 -87 25 -105 68 -116 22 -6 265
-15 563 -20 569 -11 646 -18 823 -76 351 -115 666 -376 831 -688 56 -105 73
-165 140 -484 116 -551 148 -597 338 -483 91 55 129 52 164 -13 27 -48 23
-258 -6 -392 -48 -223 -157 -534 -243 -695 -98 -184 -190 -233 -332 -179 -62
24 -99 20 -117 -12 -6 -12 -44 -119 -84 -238 -158 -467 -275 -679 -500 -907
-276 -278 -676 -528 -1040 -648 -187 -62 -303 -80 -520 -80 -209 1 -251 9
-378 77 -169 89 -112 174 148 220 47 8 186 12 417 12 l346 -1 16 33 c30 63 49
351 26 394 -19 34 -35 30 -267 -75 -134 -60 -173 -68 -325 -67 -100 1 -141 5
-188 21 -109 37 -256 138 -375 259 l-59 61 -76 0 -75 0 25 20 c14 11 81 48
150 83 l124 62 101 -1 c55 -1 127 -4 159 -8 52 -7 63 -12 98 -50 49 -55 131
-95 230 -112 171 -30 596 -61 661 -49 103 20 -6 121 -244 225 -133 59 -256 88
-405 96 l-124 7 -4 31 c-14 89 -15 192 -3 216 7 14 40 39 76 57 73 38 128 42
225 17 118 -31 266 6 318 79 20 27 23 44 22 112 0 95 -17 148 -109 347 -144
310 -171 421 -162 673 7 183 17 230 61 279 70 79 261 163 515 227 235 59 404
82 606 82 190 0 269 -13 473 -77 168 -53 227 -46 191 21 -34 64 -290 207 -488
272 -164 55 -247 64 -496 57 -254 -8 -295 -13 -468 -61 -209 -57 -316 -106
-358 -165 -10 -14 -34 -81 -54 -150 -20 -69 -52 -163 -72 -210 -31 -75 -36
-100 -44 -214 -8 -130 -1 -266 21 -361 24 -109 49 -175 200 -515 44 -100 67
-221 50 -266 -17 -43 -72 -50 -209 -25 -67 11 -134 21 -149 21 -16 0 -70 -20
-121 -45 -51 -25 -101 -45 -111 -45 -10 0 -60 38 -110 85 -114 105 -171 135
-255 135 -111 0 -245 -90 -261 -176 -8 -45 24 -96 84 -132 44 -26 54 -27 172
-27 69 0 161 4 206 9 65 7 83 6 90 -5 11 -18 18 -179 10 -224 l-7 -35 -168 0
c-183 0 -229 -8 -335 -62 -142 -72 -356 -237 -356 -275 0 -27 53 -35 188 -29
l133 7 80 -73 c153 -139 293 -220 449 -259 71 -18 104 -21 210 -17 116 4 134
8 260 51 74 25 143 49 153 52 15 6 17 0 17 -58 0 -35 -3 -78 -6 -95 l-6 -30
-362 -5 c-390 -5 -449 -12 -552 -62 -28 -14 -72 -45 -98 -68 -39 -37 -46 -49
-46 -81 0 -102 103 -194 286 -255 211 -70 448 -66 765 14 349 88 667 251 995
511 412 326 554 544 772 1185 l36 106 111 10 c134 13 186 36 261 114 89 95
174 272 274 569 84 252 94 308 95 535 0 222 -3 232 -88 289 -30 19 -58 43 -61
53 -4 9 -20 134 -37 277 -65 568 -126 837 -246 1084 -201 413 -671 755 -1281
932 -375 108 -702 150 -1180 150 l-213 0 6 -182z m540 71 c288 -18 507 -52
737 -115 679 -186 1144 -544 1323 -1019 96 -255 187 -783 196 -1140 l2 -80
-42 -28 c-23 -16 -48 -26 -55 -24 -20 8 -39 79 -102 379 -65 305 -92 403 -138
501 -53 109 -151 252 -235 340 -83 87 -268 240 -370 305 -128 83 -446 187
-646 211 -44 5 -295 13 -557 17 -429 6 -478 8 -483 23 -6 20 -31 342 -41 519
l-7 133 124 -6 c68 -3 201 -10 294 -16z m1111 -2175 c191 -37 189 -40 -26 -48
-107 -4 -242 -14 -300 -22 -139 -20 -432 -92 -599 -149 -74 -24 -136 -43 -139
-41 -7 8 8 61 28 93 61 102 529 209 845 195 39 -2 124 -14 191 -28z m-1906
-1840 c28 -26 50 -53 50 -60 0 -21 -79 -37 -162 -32 -109 6 -137 37 -80 91 33
31 66 46 110 46 26 1 44 -9 82 -45z m728 -580 c41 -13 90 -34 110 -45 l37 -20
-115 5 c-198 9 -390 47 -390 77 0 28 260 16 358 -17z"/>
<path d="M12995 3033 c-154 -434 -294 -818 -312 -854 -33 -67 -109 -149 -138
-149 -10 0 -15 -10 -15 -27 l0 -28 238 1 237 1 0 24 c0 22 -5 25 -60 31 -63 8
-95 26 -129 72 -17 22 -21 41 -20 104 1 84 12 132 81 330 l46 132 260 -2 261
-3 83 -250 c93 -280 99 -322 51 -358 -15 -11 -49 -22 -77 -25 -47 -4 -51 -7
-51 -31 l0 -26 360 0 360 0 0 23 c0 14 -8 26 -23 31 -41 16 -82 58 -105 108
-12 26 -152 415 -311 863 l-289 815 -83 3 -84 2 -280 -787z m315 29 c62 -183
111 -335 108 -337 -3 -3 -111 -4 -240 -3 l-235 3 121 347 c66 190 124 341 127
335 4 -7 57 -162 119 -345z"/>
<path d="M5880 3788 c1 -17 12 -28 43 -43 28 -13 51 -35 69 -65 15 -25 166
-418 336 -875 l309 -830 84 -3 84 -3 254 753 c140 414 271 790 292 836 43 93
71 130 135 181 24 18 44 42 44 52 0 18 -12 19 -240 19 l-240 0 0 -25 c0 -21 5
-25 28 -25 41 0 114 -41 138 -78 12 -18 25 -54 29 -81 13 -95 -18 -216 -186
-716 -89 -264 -165 -483 -168 -488 -4 -4 -74 178 -156 405 -323 899 -315 873
-277 916 20 24 72 42 118 42 30 0 34 3 34 25 l0 25 -365 0 -365 0 0 -22z"/>
<path d="M15750 3717 c-65 -29 -135 -46 -217 -53 l-73 -7 0 -168 0 -169 -100
0 -100 0 0 -25 c0 -25 0 -25 99 -25 l100 0 3 -537 c5 -625 4 -619 93 -709 59
-62 121 -84 230 -84 98 0 156 22 215 81 60 60 121 176 99 190 -24 15 -37 10
-43 -16 -4 -14 -25 -45 -49 -69 -65 -68 -143 -72 -184 -9 -17 25 -18 64 -18
588 l0 560 138 3 137 3 0 24 0 25 -140 0 -140 0 -2 208 -3 208 -45 -19z"/>
<path d="M7860 3335 c-198 -54 -337 -202 -395 -420 -41 -157 -41 -410 1 -570
54 -205 204 -357 391 -395 31 -7 100 -10 153 -8 85 3 105 8 165 37 112 55 210
170 264 309 l21 53 -22 8 c-19 7 -26 2 -51 -35 -63 -95 -154 -152 -258 -161
-145 -14 -266 98 -316 290 -10 41 -16 108 -17 197 l-1 135 334 3 334 2 -6 98
c-16 232 -87 359 -247 436 -60 28 -75 31 -180 33 -78 2 -133 -2 -170 -12z
m204 -65 c56 -50 96 -199 96 -362 l0 -78 -186 0 -186 0 7 68 c9 91 33 216 52
260 33 81 100 142 155 142 16 0 41 -12 62 -30z"/>
<path d="M10112 3335 c-129 -28 -232 -92 -280 -173 -56 -96 -26 -249 58 -294
41 -21 117 -24 163 -4 135 56 144 268 15 348 -21 13 -36 28 -35 33 6 22 84 49
149 53 59 4 73 1 111 -22 74 -42 96 -115 97 -304 0 -147 -11 -177 -76 -221
-24 -16 -93 -46 -152 -66 -232 -80 -338 -149 -389 -253 -24 -50 -28 -69 -28
-147 0 -121 22 -184 86 -246 31 -31 67 -53 100 -64 59 -20 175 -23 235 -6 60
16 132 68 178 128 l41 53 15 -47 c21 -68 35 -88 75 -113 75 -46 240 -44 333 5
75 39 85 50 72 74 -13 26 -18 26 -50 1 -14 -11 -35 -20 -46 -20 -49 0 -49 1
-55 524 -5 472 -6 494 -27 558 -37 110 -120 179 -250 207 -71 15 -262 13 -340
-4z m251 -1142 c-30 -40 -92 -72 -136 -73 -85 0 -138 64 -145 176 -9 142 28
218 158 323 47 38 99 84 115 101 l30 31 3 -261 2 -261 -27 -36z"/>
<path d="M11422 3336 c-186 -47 -327 -191 -391 -398 -41 -136 -50 -380 -20
-533 40 -199 135 -336 281 -410 89 -44 161 -58 278 -53 84 3 105 8 161 35 110
54 209 167 259 293 25 63 25 76 2 82 -14 4 -26 -7 -46 -38 -60 -95 -154 -153
-262 -162 -51 -4 -71 0 -115 20 -69 32 -122 87 -159 163 -40 85 -53 161 -54
310 l-1 130 334 3 334 2 -6 93 c-16 232 -92 368 -245 440 -62 29 -76 32 -182
34 -70 1 -136 -3 -168 -11z m201 -65 c56 -50 97 -201 97 -363 l0 -78 -186 0
-186 0 7 73 c16 173 48 275 106 341 56 64 109 73 162 27z"/>
<path d="M14904 3326 c-68 -32 -117 -76 -162 -149 l-37 -61 -3 113 -3 114 -37
-7 c-114 -19 -235 -28 -337 -25 l-115 4 0 -27 c0 -24 4 -28 29 -28 34 0 75
-30 99 -73 15 -29 17 -80 20 -517 2 -267 0 -504 -3 -528 -9 -60 -48 -102 -102
-109 -38 -5 -43 -9 -43 -32 l0 -26 360 0 360 0 0 26 c0 25 -4 27 -52 31 -81 7
-127 33 -152 87 -20 44 -21 64 -24 428 -2 237 1 403 7 438 30 161 141 285 255
285 15 0 13 -5 -13 -35 -50 -57 -65 -94 -65 -165 -1 -113 56 -170 169 -170
126 0 192 86 183 235 -6 92 -39 153 -102 190 -59 35 -159 35 -232 1z"/>
<path d="M8654 3185 c3 -77 6 -193 6 -257 l0 -118 25 0 c20 0 25 5 25 25 0 58
33 185 66 252 40 83 97 139 170 167 64 24 270 36 262 15 -3 -8 -135 -300 -293
-649 -158 -349 -289 -639 -291 -645 -3 -7 158 -10 472 -10 l476 0 -6 65 c-3
36 -6 152 -6 258 l0 192 -23 0 c-22 0 -25 -7 -39 -96 -29 -175 -114 -302 -234
-348 -50 -19 -254 -36 -254 -21 0 6 573 1283 585 1305 2 3 -211 5 -472 5
l-476 0 7 -140z"/>
</g>
</svg>
