<?xml version="1.0" standalone="no"?>
<!DOCTYPE svg PUBLIC "-//W3C//DTD SVG 20010904//EN"
 "http://www.w3.org/TR/2001/REC-SVG-20010904/DTD/svg10.dtd">
<svg version="1.0" xmlns="http://www.w3.org/2000/svg"
 width="1000.000000pt" height="1000.000000pt" viewBox="0 0 1000.000000 1000.000000"
 preserveAspectRatio="xMidYMid meet">
<metadata>
Created by potrace 1.14, written by Peter Selinger 2001-2017
</metadata>
<g transform="translate(0.000000,1000.000000) scale(0.100000,-0.100000)"
fill="#000000" stroke="none">
<path d="M3484 9663 c-10 -3 -10 -24 1 -428 6 -244 8 -280 20 -440 11 -165 15
-206 19 -233 3 -15 8 -47 11 -72 10 -78 34 -127 69 -144 62 -29 6 -27 1116
-40 206 -3 386 -7 400 -10 14 -2 61 -7 104 -11 44 -3 82 -7 85 -9 3 -2 31 -7
61 -11 88 -11 307 -70 405 -110 129 -52 304 -146 415 -222 238 -165 383 -309
599 -594 33 -43 139 -239 171 -314 46 -112 76 -227 135 -523 31 -152 58 -290
61 -307 3 -16 21 -102 40 -191 80 -374 145 -493 263 -480 41 5 127 43 161 71
40 32 127 72 150 69 136 -23 170 -263 94 -671 -77 -421 -298 -1046 -444 -1258
-108 -157 -239 -205 -393 -142 -124 50 -170 41 -205 -40 -11 -26 -55 -160 -97
-296 -128 -418 -224 -666 -352 -907 -53 -101 -188 -313 -216 -341 -7 -8 -18
-21 -23 -30 -21 -36 -106 -131 -224 -249 -155 -156 -182 -180 -350 -313 -494
-393 -1039 -660 -1515 -743 -128 -22 -165 -24 -396 -25 -233 -1 -299 8 -415
56 -190 79 -284 154 -284 228 0 58 103 122 254 157 176 41 258 45 778 44 l466
-2 22 50 c12 27 23 69 26 91 3 23 6 47 9 53 8 25 19 205 19 325 0 105 -3 130
-18 154 -17 25 -22 27 -65 21 -28 -4 -115 -40 -227 -95 -199 -98 -297 -136
-389 -150 -74 -12 -330 -6 -404 8 -160 32 -389 187 -612 413 l-106 108 -114 0
-114 0 100 66 c121 78 276 158 353 180 46 14 84 16 207 11 233 -9 290 -22 311
-73 7 -18 30 -46 51 -64 47 -39 186 -108 233 -115 19 -4 53 -10 75 -15 49 -10
92 -17 170 -25 33 -4 71 -8 85 -11 14 -2 59 -6 100 -10 41 -3 86 -8 100 -10
56 -9 274 -19 413 -19 158 0 167 3 167 52 0 73 -242 233 -526 346 -186 75
-323 102 -546 106 -73 1 -134 3 -135 4 -1 1 -4 40 -7 87 -3 47 -9 118 -12 158
-11 145 8 178 141 246 95 50 155 55 266 26 261 -69 495 6 553 176 14 42 15
142 2 204 -3 14 -8 39 -12 55 -12 59 -67 203 -146 385 -211 483 -250 636 -249
980 1 270 16 392 62 482 39 77 186 176 384 258 155 64 430 151 560 176 11 2
54 11 95 19 118 24 124 25 235 41 28 3 59 8 70 10 101 19 460 26 590 11 120
-13 293 -56 474 -118 237 -80 288 -78 282 14 -3 49 -167 179 -354 281 -228
125 -540 235 -716 253 -77 8 -280 8 -536 -1 -256 -8 -284 -12 -535 -83 -268
-75 -441 -148 -519 -221 -41 -39 -67 -96 -97 -214 -32 -132 -75 -266 -124
-393 -61 -157 -70 -222 -71 -505 0 -144 3 -202 17 -290 3 -19 7 -44 9 -55 24
-155 93 -356 235 -685 139 -321 147 -351 152 -525 1 -66 -7 -82 -55 -107 -35
-17 -53 -20 -117 -15 -41 3 -88 9 -105 12 -16 3 -66 13 -109 22 -157 31 -201
23 -354 -62 -92 -51 -114 -59 -154 -56 -10 0 -80 61 -155 134 -136 131 -193
173 -264 196 -129 42 -292 -5 -402 -115 -61 -61 -97 -126 -97 -175 0 -95 122
-205 252 -227 72 -12 257 -7 363 11 55 9 121 19 147 22 l46 5 17 -51 c17 -52
24 -245 12 -329 -3 -19 -6 -38 -6 -42 -1 -4 -103 -7 -228 -7 -126 -1 -248 -4
-273 -7 -135 -18 -317 -114 -528 -277 -245 -188 -295 -262 -199 -288 35 -10
252 -7 404 4 15 1 49 -25 110 -83 194 -187 314 -276 478 -355 244 -117 500
-143 755 -77 105 27 314 103 384 139 l28 15 -4 -146 c-3 -80 -6 -148 -9 -150
-2 -2 -206 -7 -454 -10 -247 -3 -457 -6 -465 -7 -31 -2 -186 -20 -200 -23 -8
-1 -33 -6 -55 -10 -129 -25 -236 -80 -329 -169 -57 -55 -69 -80 -68 -142 2
-196 279 -386 657 -450 80 -14 390 -14 480 0 312 48 529 105 805 212 470 183
1018 562 1430 988 119 122 135 142 225 261 209 276 321 515 529 1133 58 172
106 314 106 315 0 1 30 3 68 4 74 3 147 9 205 18 183 26 337 187 471 494 21
47 44 99 51 115 89 200 248 710 276 885 5 36 12 76 14 90 9 51 18 239 18 360
0 257 -18 313 -121 386 -99 70 -102 74 -117 144 -7 36 -16 97 -20 135 -4 39
-8 84 -10 100 -2 17 -6 57 -9 90 -4 33 -8 71 -11 85 -2 14 -7 61 -10 104 -4
43 -8 86 -10 95 -1 9 -6 46 -9 83 -4 37 -9 77 -11 90 -4 27 -13 97 -20 149
-62 493 -193 960 -351 1254 -323 604 -1000 1099 -1859 1360 -239 72 -583 151
-740 169 -27 3 -59 8 -70 10 -11 2 -49 7 -85 11 -36 3 -76 8 -90 10 -52 7
-160 15 -290 21 -148 7 -750 12 -766 7z m621 -158 c166 -10 263 -16 305 -20
134 -13 172 -17 245 -26 44 -6 91 -12 105 -14 14 -2 43 -7 65 -9 147 -19 464
-94 661 -157 906 -290 1536 -799 1808 -1460 59 -143 158 -500 191 -684 2 -16
7 -41 10 -55 6 -28 8 -39 30 -167 8 -51 18 -111 21 -135 3 -24 7 -54 10 -68 2
-14 9 -65 14 -115 6 -49 12 -101 15 -115 2 -14 6 -63 10 -110 4 -47 8 -96 10
-110 6 -41 18 -278 19 -369 l1 -84 -48 -34 c-26 -19 -59 -38 -73 -43 -23 -9
-27 -7 -45 35 -17 39 -86 327 -104 435 -3 19 -8 42 -10 50 -2 8 -7 31 -10 50
-19 108 -88 439 -109 520 -58 222 -148 413 -300 635 -124 182 -350 400 -641
620 -181 137 -530 276 -865 344 -85 17 -129 24 -225 37 -30 3 -487 11 -1118
18 -181 2 -332 7 -337 12 -4 5 -11 34 -14 64 -20 195 -24 240 -31 370 -3 63
-8 138 -10 165 -3 28 -7 106 -10 175 -3 69 -8 156 -10 193 l-3 68 186 -6 c103
-3 219 -8 257 -10z m1780 -3403 c166 -35 308 -72 301 -80 -3 -2 -108 -6 -233
-8 -228 -3 -410 -11 -422 -18 -3 -2 -33 -7 -66 -10 -33 -4 -67 -8 -75 -11 -8
-2 -28 -6 -44 -9 -75 -13 -152 -31 -291 -67 -273 -71 -365 -100 -547 -168 -75
-28 -141 -51 -147 -51 -31 0 12 140 55 184 34 33 96 68 192 105 81 32 273 88
332 97 19 3 51 9 70 14 19 5 55 12 80 15 25 3 52 8 60 10 19 5 106 16 200 24
41 4 147 6 235 5 131 -2 185 -8 300 -32z m-2855 -2830 c31 -12 150 -135 150
-155 0 -38 -199 -69 -303 -47 -105 21 -128 71 -66 137 64 67 148 92 219 65z
m1044 -932 c64 -14 241 -84 291 -115 l40 -26 -132 6 c-73 3 -139 7 -145 10 -7
2 -40 6 -73 9 -237 21 -483 99 -382 121 63 14 327 11 401 -5z"/>
</g>
</svg>
